<?xml version="1.0" encoding="UTF-8" standalone="no"?>
<!-- Created with Inkscape (http://www.inkscape.org/) -->

<svg
   version="1.1"
   id="svg2"
   xml:space="preserve"
   width="457.01465"
   height="124.32367"
   viewBox="0 0 457.01465 124.32367"
   sodipodi:docname="logo_gdr.svg"
   inkscape:version="1.1.2 (0a00cf5339, 2022-02-04)"
   xmlns:inkscape="http://www.inkscape.org/namespaces/inkscape"
   xmlns:sodipodi="http://sodipodi.sourceforge.net/DTD/sodipodi-0.dtd"
   xmlns="http://www.w3.org/2000/svg"
   xmlns:svg="http://www.w3.org/2000/svg"><defs
     id="defs6"><clipPath
       clipPathUnits="userSpaceOnUse"
       id="clipPath16"><path
         d="M 0,333.381 H 595.276 V 0 H 0 Z"
         id="path14" /></clipPath></defs><sodipodi:namedview
     id="namedview4"
     pagecolor="#ffffff"
     bordercolor="#666666"
     borderopacity="1.0"
     inkscape:pageshadow="2"
     inkscape:pageopacity="0"
     inkscape:pagecheckerboard="0"
     showgrid="false"
     inkscape:zoom="1.2125119"
     inkscape:cx="324.5329"
     inkscape:cy="189.27649"
     inkscape:window-width="1846"
     inkscape:window-height="1016"
     inkscape:window-x="74"
     inkscape:window-y="27"
     inkscape:window-maximized="1"
     inkscape:current-layer="g12"
     fit-margin-top="0"
     fit-margin-left="0"
     fit-margin-right="0"
     fit-margin-bottom="0" /><g
     id="g8"
     inkscape:groupmode="layer"
     inkscape:label="LOGO-GDR_Gabarit"
     transform="matrix(1.3333333,0,0,-1.3333333,-215.82935,280.80841)"><g
       id="g10"
       style="fill:#f2f2f2"><g
         id="g12"
         clip-path="url(#clipPath16)"
         style="fill:#f2f2f2"><rect
           style="opacity:1;fill:#000000;fill-opacity:0;stroke-width:3.8693"
           id="rect6846"
           width="344.54333"
           height="94.742088"
           x="162.52211"
           y="-209.60092"
           transform="scale(1,-1)" /><g
           id="g18"
           transform="translate(182.8101,210.5693)"
           style="fill:#f2f2f2"><path
             d="m 0,0 c -0.393,0.024 -0.784,0.037 -1.172,0.037 -5.412,0.006 -10.316,-2.299 -14.588,-6.865 -3.884,-4.151 -5.19,-7.493 -5.178,-11.527 0.006,-2.158 0.389,-4.515 0.956,-7.3 1.066,-5.237 4.175,-10.293 8.53,-13.873 3.334,-2.741 7.053,-4.14 10.972,-4.166 2.03,-0.014 4.114,0.342 6.227,1.071 6.822,2.354 13.347,9.096 15.869,16.393 0.798,2.309 1.185,4.556 1.177,6.695 -0.02,5.227 -2.408,9.808 -6.97,13.084 C 10.289,-2.476 4.965,-0.306 0,0"
             style="fill:#f2f2f2;fill-opacity:1;fill-rule:nonzero;stroke:none"
             id="path20" /></g><g
           id="g22"
           transform="translate(175.022,188.6703)"
           style="fill:#1d3254;fill-opacity:1"><path
             d="m 0,0 h -1.5 l -10e-4,-0.042 c -0.013,-0.291 -0.186,-2.843 -2.469,-2.843 -2.04,0 -3.076,1.828 -3.078,5.435 0.002,3.607 1.038,5.436 3.078,5.436 2.323,0 2.463,-2.727 2.469,-2.843 L -1.5,5.101 H 0 c 0.139,0 0.273,0.057 0.37,0.156 C 0.462,5.352 0.51,5.475 0.503,5.603 0.472,6.31 0.109,9.84 -3.991,9.84 c -3.314,0 -5.065,-2.518 -5.065,-7.282 0,-4.774 1.751,-7.298 5.065,-7.298 3.946,0 4.437,3.224 4.493,4.213 C 0.512,-0.391 0.465,-0.26 0.37,-0.159 0.274,-0.058 0.139,0 0,0"
             style="fill:#1d3254;fill-opacity:1;fill-rule:nonzero;stroke:none"
             id="path24" /></g><g
           id="g26"
           transform="translate(198.3291,192.0873)"
           style="fill:#1d3254;fill-opacity:1"><path
             d="m 0,0 v 0 l -1.292,0.563 c -1.242,0.546 -1.683,1.077 -1.683,2.03 0,1.242 0.909,2.077 2.262,2.077 0.799,0 1.456,-0.164 2.257,-0.979 L 1.588,3.646 2.277,4.277 c 0.399,0.37 0.284,0.704 0.117,0.919 -0.672,0.793 -1.752,1.229 -3.041,1.229 -2.486,0 -4.291,-1.622 -4.291,-3.857 0,-2.197 1.385,-3.116 2.881,-3.781 l 1.318,-0.588 c 1.325,-0.595 1.956,-1.101 1.956,-2.375 0,-1.739 -1.571,-2.202 -2.499,-2.202 -0.799,0 -1.688,0.17 -2.78,1.408 l -0.042,0.049 -0.719,-0.631 c -0.369,-0.325 -0.372,-0.604 -0.012,-1.067 0.988,-1.271 2.438,-1.538 3.48,-1.538 2.253,0 4.535,1.385 4.535,4.03 C 3.18,-1.838 1.909,-0.822 0,0"
             style="fill:#1d3254;fill-opacity:1;fill-rule:nonzero;stroke:none"
             id="path28" /></g><g
           id="g30"
           transform="translate(185.5903,194.3393)"
           style="fill:#1d3254;fill-opacity:1"><path
             d="m 0,0 c 0,2.25 -1.824,4.158 -4.076,4.158 -1.058,0 -2.023,-0.404 -2.748,-1.066 V 3.865 H -8.18 c -0.408,0 -0.564,-0.266 -0.564,-0.573 V -9.842 c 0,-0.37 0.226,-0.567 0.558,-0.567 H -6.83 V -0.08 c 0,1.357 1.101,2.457 2.458,2.457 1.356,0 2.457,-1.1 2.457,-2.457 v -10.331 h 1.348 c 0.373,0 0.567,0.207 0.567,0.565 z"
             style="fill:#1d3254;fill-opacity:1;fill-rule:nonzero;stroke:none"
             id="path32" /></g><g
           id="g34"
           transform="translate(193.3662,197.5151)"
           style="fill:#1d3254;fill-opacity:1"><path
             d="m 0,0 c 0.071,0.088 0.114,0.198 0.114,0.319 0,0.226 -0.147,0.416 -0.349,0.485 -0.393,0.132 -0.81,0.203 -1.245,0.203 -1.059,0 -2.023,-0.403 -2.748,-1.066 v 0.774 h -1.356 c -0.409,0 -0.565,-0.266 -0.565,-0.573 v -13.134 c 0,-0.37 0.227,-0.568 0.559,-0.568 h 1.356 v 10.33 c 0,1.357 1.1,2.457 2.458,2.457 0.355,0 0.692,-0.077 0.997,-0.213 l 0.783,0.983 z"
             style="fill:#1d3254;fill-opacity:1;fill-rule:nonzero;stroke:none"
             id="path36" /></g><g
           id="g38"
           transform="translate(260.1802,204.517)"
           style="fill:#f2f2f2"><path
             d="m 0,0 h -9.078 v -18.457 h 8.349 v 11.758 h 0.292 c 4.029,0 7.281,-1.553 7.281,-8.931 0,-7.374 -3.248,-9.221 -7.273,-9.224 h -0.008 -0.292 -8.369 v -6.699 h 9.583 c 8.543,0 14.902,4.758 14.902,15.923 C 15.387,-4.466 9.028,0 0,0"
             style="fill:#f2f2f2;fill-opacity:1;fill-rule:nonzero;stroke:none"
             id="path40" /></g><g
           id="g42"
           transform="translate(310.5156,172.9643)"
           style="fill:#f2f2f2"><path
             d="m 0,0 -6.863,12.263 c 3.07,1.654 5.116,4.589 5.116,9.096 0,7.864 -5.825,10.194 -12.622,10.194 h -11.763 v -6.602 h 11.181 c 3.301,0 5.049,-0.874 5.049,-3.592 0,-2.719 -1.748,-4.175 -5.049,-4.175 H -26.115 V 0 h 8.349 v 10.583 h 3.015 L -9.319,0 Z"
             style="fill:#f2f2f2;fill-opacity:1;fill-rule:nonzero;stroke:none"
             id="path44" /></g><path
           d="m 230.823,184.518 h 11.443 v 6.796 h -11.443 z"
           style="fill:#f2f2f2;fill-opacity:1;fill-rule:nonzero;stroke:none"
           id="path46" /><g
           id="g48"
           transform="translate(229.9487,179.5668)"
           style="fill:#f2f2f2"><path
             d="m 0,0 c -4.514,0 -6.699,3.3 -6.699,9.222 0,5.728 2.816,9.126 6.262,9.126 2.282,0 3.544,-0.776 4.854,-2.038 l 4.563,5.145 c -2.086,2.136 -5.145,4.078 -9.417,4.078 -8.203,0 -14.854,-5.923 -14.854,-16.602 0,-10.776 6.699,-16.116 14.806,-16.116 4.029,0 7.912,1.942 10.048,3.883 V 0 Z"
             style="fill:#f2f2f2;fill-opacity:1;fill-rule:nonzero;stroke:none"
             id="path50" /></g><g
           id="g52"
           transform="translate(320.1445,196.2045)"
           style="fill:#f2f2f2"><path
             d="m 0,0 c 0,3.618 2.11,5.729 5.126,5.729 1.508,0 2.513,-0.704 3.216,-1.407 L 7.538,3.417 C 6.935,4.021 6.231,4.422 5.126,4.422 c -2.212,0 -3.719,-1.708 -3.719,-4.523 0,-2.814 1.307,-4.523 3.719,-4.523 0.804,0 1.608,0.201 2.01,0.603 v 3.116 H 4.824 V 0.301 H 8.442 V -4.322 C 7.739,-5.026 6.533,-5.629 5.025,-5.629 2.11,-5.729 0,-3.619 0,0"
             style="fill:#f2f2f2;fill-opacity:1;fill-rule:nonzero;stroke:none"
             id="path54" /></g><g
           id="g56"
           transform="translate(332.6074,198.9184)"
           style="fill:#f2f2f2"><path
             d="m 0,0 h 1.105 l 0.101,-1.508 c 0.604,1.005 1.407,1.709 2.313,1.709 0.401,0 0.602,0 0.904,-0.201 L 4.121,-1.207 c -0.302,0.101 -0.503,0.101 -0.804,0.101 -0.704,0 -1.507,-0.502 -2.111,-1.91 V -8.343 H -0.201 V 0 Z"
             style="fill:#f2f2f2;fill-opacity:1;fill-rule:nonzero;stroke:none"
             id="path58" /></g><g
           id="g60"
           transform="translate(345.4727,194.7973)"
           style="fill:#f2f2f2"><path
             d="M 0,0 C 0,1.91 -1.005,3.216 -2.412,3.216 -3.819,3.216 -4.824,1.91 -4.824,0 c 0,-1.91 1.005,-3.116 2.412,-3.116 C -1.005,-3.116 0,-1.91 0,0 m -6.231,0 c 0,2.714 1.809,4.322 3.819,4.322 2.011,0 3.819,-1.608 3.819,-4.322 0,-2.714 -1.808,-4.322 -3.819,-4.322 -2.01,0 -3.819,1.608 -3.819,4.322"
             style="fill:#f2f2f2;fill-opacity:1;fill-rule:nonzero;stroke:none"
             id="path62" /></g><g
           id="g64"
           transform="translate(350.3984,193.6918)"
           style="fill:#f2f2f2"><path
             d="M 0,0 V 5.227 H 1.407 V 0.201 c 0,-1.508 0.502,-2.211 1.507,-2.211 0.805,0 1.407,0.402 2.212,1.406 V 5.227 H 6.533 V -3.016 H 5.428 L 5.327,-1.709 C 4.522,-2.613 3.719,-3.217 2.613,-3.217 0.804,-3.217 0,-2.111 0,0"
             style="fill:#f2f2f2;fill-opacity:1;fill-rule:nonzero;stroke:none"
             id="path66" /></g><g
           id="g68"
           transform="translate(366.9824,194.8979)"
           style="fill:#f2f2f2"><path
             d="m 0,0 c 0,1.809 -0.604,3.015 -2.211,3.015 -0.704,0 -1.407,-0.402 -2.212,-1.105 v -4.323 c 0.704,-0.603 1.508,-0.904 2.011,-0.904 C -1.005,-3.216 0,-2.01 0,0 m -5.729,4.021 h 1.106 l 0.1,-0.905 c 0.704,0.603 1.709,1.105 2.614,1.105 2.11,0 3.216,-1.608 3.216,-4.221 0,-2.814 -1.709,-4.423 -3.518,-4.423 -0.704,0 -1.508,0.302 -2.312,0.905 v -1.407 -2.714 h -1.206 z"
             style="fill:#f2f2f2;fill-opacity:1;fill-rule:nonzero;stroke:none"
             id="path70" /></g><g
           id="g72"
           transform="translate(377.2344,195.5009)"
           style="fill:#f2f2f2"><path
             d="M 0,0 C 0,1.608 -0.703,2.513 -2.01,2.513 -3.115,2.513 -4.222,1.608 -4.321,0 Z m -5.729,-0.704 c 0,2.714 1.809,4.322 3.719,4.322 2.111,0 3.317,-1.507 3.317,-3.819 0,-0.301 0,-0.603 -0.101,-0.804 h -5.527 c 0.099,-1.709 1.206,-2.915 2.713,-2.915 0.804,0 1.407,0.301 2.01,0.704 l 0.503,-0.905 c -0.704,-0.503 -1.608,-0.804 -2.714,-0.804 -2.111,-0.101 -3.92,1.508 -3.92,4.221"
             style="fill:#f2f2f2;fill-opacity:1;fill-rule:nonzero;stroke:none"
             id="path74" /></g><g
           id="g76"
           transform="translate(382.0596,198.9184)"
           style="fill:#f2f2f2"><path
             d="m 0,0 h 1.105 l 0.101,-1.207 c 0.703,0.805 1.607,1.408 2.513,1.408 1.306,0 1.909,-0.603 2.311,-1.608 0.804,0.904 1.709,1.608 2.714,1.608 1.709,0 2.513,-1.106 2.513,-3.217 V -8.242 H 9.85 v 5.025 c 0,1.508 -0.503,2.212 -1.508,2.212 -0.603,0 -1.307,-0.402 -2.111,-1.307 v -5.93 H 4.824 v 5.025 c 0,1.508 -0.503,2.212 -1.508,2.212 -0.602,0 -1.306,-0.402 -2.11,-1.307 v -5.93 H -0.201 V 0 Z"
             style="fill:#f2f2f2;fill-opacity:1;fill-rule:nonzero;stroke:none"
             id="path78" /></g><g
           id="g80"
           transform="translate(402.6641,195.5009)"
           style="fill:#f2f2f2"><path
             d="M 0,0 C 0,1.608 -0.704,2.513 -2.011,2.513 -3.116,2.513 -4.222,1.608 -4.322,0 Z m -5.729,-0.704 c 0,2.714 1.809,4.322 3.718,4.322 2.112,0 3.318,-1.507 3.318,-3.819 0,-0.301 0,-0.603 -0.101,-0.804 h -5.528 c 0.1,-1.709 1.206,-2.915 2.714,-2.915 0.804,0 1.407,0.301 2.01,0.704 l 0.502,-0.905 c -0.703,-0.503 -1.608,-0.804 -2.714,-0.804 -2.211,-0.101 -3.919,1.508 -3.919,4.221"
             style="fill:#f2f2f2;fill-opacity:1;fill-rule:nonzero;stroke:none"
             id="path82" /></g><g
           id="g84"
           transform="translate(407.4883,198.9184)"
           style="fill:#f2f2f2"><path
             d="m 0,0 h 1.105 l 0.101,-1.207 c 0.805,0.805 1.608,1.408 2.714,1.408 1.709,0 2.513,-1.106 2.513,-3.217 V -8.242 H 5.025 v 5.025 c 0,1.508 -0.502,2.212 -1.506,2.212 -0.805,0 -1.408,-0.402 -2.212,-1.307 v -5.93 H 0 Z"
             style="fill:#f2f2f2;fill-opacity:1;fill-rule:nonzero;stroke:none"
             id="path86" /></g><g
           id="g88"
           transform="translate(418.4443,193.1889)"
           style="fill:#f2f2f2"><path
             d="M 0,0 V 4.523 H -1.206 V 5.528 L 0.101,5.629 0.302,7.94 H 1.508 V 5.629 H 3.719 V 4.523 H 1.508 V 0 c 0,-1.005 0.302,-1.608 1.306,-1.608 0.301,0 0.704,0.101 0.905,0.201 L 4.021,-2.412 C 3.518,-2.613 3.016,-2.714 2.513,-2.714 0.603,-2.714 0,-1.608 0,0"
             style="fill:#f2f2f2;fill-opacity:1;fill-rule:nonzero;stroke:none"
             id="path90" /></g><g
           id="g92"
           transform="translate(325.9736,175.9013)"
           style="fill:#f2f2f2"><path
             d="m 0,0 v 4.322 c -0.703,0.603 -1.307,0.905 -2.01,0.905 -1.306,0 -2.311,-1.307 -2.311,-3.117 0,-2.01 0.803,-3.115 2.211,-3.115 C -1.407,-1.207 -0.703,-0.804 0,0 m -5.829,2.01 c 0,2.714 1.708,4.322 3.517,4.322 1.005,0 1.609,-0.402 2.312,-0.905 l -0.101,1.407 v 3.217 H 1.307 V -2.01 H 0.201 l -0.1,1.005 c -0.603,-0.603 -1.508,-1.206 -2.513,-1.206 -2.11,-0.101 -3.417,1.407 -3.417,4.221"
             style="fill:#f2f2f2;fill-opacity:1;fill-rule:nonzero;stroke:none"
             id="path94" /></g><g
           id="g96"
           transform="translate(336.7285,178.5146)"
           style="fill:#f2f2f2"><path
             d="M 0,0 C 0,1.608 -0.703,2.513 -2.01,2.513 -3.116,2.513 -4.222,1.608 -4.322,0 Z m -5.729,-0.603 c 0,2.713 1.809,4.322 3.719,4.322 2.111,0 3.317,-1.508 3.317,-3.82 0,-0.301 0,-0.603 -0.101,-0.804 h -5.528 c 0.1,-1.708 1.206,-2.915 2.714,-2.915 0.804,0 1.407,0.302 2.01,0.704 l 0.502,-0.905 c -0.703,-0.502 -1.607,-0.804 -2.714,-0.804 -2.211,-0.1 -3.919,1.508 -3.919,4.222"
             style="fill:#f2f2f2;fill-opacity:1;fill-rule:nonzero;stroke:none"
             id="path98" /></g><g
           id="g100"
           transform="translate(346.3779,182.0322)"
           style="fill:#f2f2f2"><path
             d="m 0,0 h 1.105 l 0.101,-1.507 c 0.603,1.005 1.407,1.708 2.312,1.708 0.402,0 0.603,0 0.904,-0.201 L 4.121,-1.206 c -0.302,0.101 -0.503,0.101 -0.805,0.101 -0.703,0 -1.507,-0.503 -2.11,-1.91 V -8.342 H -0.201 V 0 Z"
             style="fill:#f2f2f2;fill-opacity:1;fill-rule:nonzero;stroke:none"
             id="path102" /></g><g
           id="g104"
           transform="translate(358.7402,178.5146)"
           style="fill:#f2f2f2"><path
             d="M 0,0 C 0,1.608 -0.703,2.513 -2.01,2.513 -3.115,2.513 -4.221,1.608 -4.321,0 Z m -5.729,-0.603 c 0,2.713 1.809,4.322 3.719,4.322 2.111,0 3.317,-1.508 3.317,-3.82 0,-0.301 0,-0.603 -0.101,-0.804 h -5.527 c 0.1,-1.708 1.206,-2.915 2.714,-2.915 0.803,0 1.406,0.302 2.009,0.704 l 0.503,-0.905 c -0.704,-0.502 -1.608,-0.804 -2.714,-0.804 -2.212,-0.1 -3.92,1.508 -3.92,4.222"
             style="fill:#f2f2f2;fill-opacity:1;fill-rule:nonzero;stroke:none"
             id="path106" /></g><g
           id="g108"
           transform="translate(362.8613,177.9116)"
           style="fill:#f2f2f2"><path
             d="m 0,0 c 0,2.713 1.81,4.322 3.92,4.322 1.105,0 1.809,-0.402 2.412,-1.006 L 5.629,2.412 C 5.126,2.814 4.624,3.116 4.021,3.116 c -1.508,0 -2.614,-1.307 -2.614,-3.217 0,-1.909 1.005,-3.116 2.513,-3.116 0.704,0 1.407,0.403 1.91,0.804 L 6.433,-3.317 C 5.729,-4.021 4.725,-4.322 3.819,-4.322 1.709,-4.322 0,-2.714 0,0"
             style="fill:#f2f2f2;fill-opacity:1;fill-rule:nonzero;stroke:none"
             id="path110" /></g><g
           id="g112"
           transform="translate(372.7119,185.8515)"
           style="fill:#f2f2f2"><path
             d="m 0,0 h 1.407 v -3.317 -1.708 c 0.804,0.703 1.608,1.407 2.714,1.407 1.708,0 2.513,-1.106 2.513,-3.216 v -5.227 H 5.227 v 5.025 c 0,1.508 -0.503,2.212 -1.508,2.212 -0.805,0 -1.407,-0.403 -2.211,-1.307 v -5.93 H 0.101 V 0 Z"
             style="fill:#f2f2f2;fill-opacity:1;fill-rule:nonzero;stroke:none"
             id="path114" /></g><g
           id="g116"
           transform="translate(388.5928,178.5146)"
           style="fill:#f2f2f2"><path
             d="M 0,0 C 0,1.608 -0.704,2.513 -2.011,2.513 -3.116,2.513 -4.222,1.608 -4.322,0 Z m -5.83,-0.603 c 0,2.713 1.809,4.322 3.719,4.322 2.111,0 3.317,-1.508 3.317,-3.82 0,-0.301 0,-0.603 -0.101,-0.804 h -5.528 c 0.101,-1.708 1.206,-2.915 2.714,-2.915 0.804,0 1.407,0.302 2.01,0.704 l 0.503,-0.905 c -0.703,-0.502 -1.609,-0.804 -2.714,-0.804 -2.111,-0.1 -3.92,1.508 -3.92,4.222"
             style="fill:#f2f2f2;fill-opacity:1;fill-rule:nonzero;stroke:none"
             id="path118" /></g><g
           id="g120"
           transform="translate(393.3164,182.0322)"
           style="fill:#f2f2f2"><path
             d="m 0,0 h 1.105 l 0.101,-1.507 c 0.604,1.005 1.407,1.708 2.312,1.708 0.402,0 0.603,0 0.905,-0.201 L 4.121,-1.206 c -0.302,0.101 -0.503,0.101 -0.804,0.101 -0.704,0 -1.507,-0.503 -2.111,-1.91 V -8.342 H -0.201 V 0 Z"
             style="fill:#f2f2f2;fill-opacity:1;fill-rule:nonzero;stroke:none"
             id="path122" /></g><g
           id="g124"
           transform="translate(399.9502,177.9116)"
           style="fill:#f2f2f2"><path
             d="m 0,0 c 0,2.713 1.81,4.322 3.92,4.322 1.105,0 1.809,-0.402 2.412,-1.006 L 5.629,2.412 C 5.126,2.814 4.623,3.116 4.021,3.116 c -1.508,0 -2.614,-1.307 -2.614,-3.217 0,-1.909 1.005,-3.116 2.513,-3.116 0.703,0 1.407,0.403 1.909,0.804 L 6.433,-3.317 C 5.729,-4.021 4.724,-4.322 3.819,-4.322 1.608,-4.322 0,-2.714 0,0"
             style="fill:#f2f2f2;fill-opacity:1;fill-rule:nonzero;stroke:none"
             id="path126" /></g><g
           id="g128"
           transform="translate(409.7002,185.8515)"
           style="fill:#f2f2f2"><path
             d="m 0,0 h 1.406 v -3.317 -1.708 c 0.805,0.703 1.609,1.407 2.714,1.407 1.709,0 2.514,-1.106 2.514,-3.216 v -5.227 H 5.227 v 5.025 c 0,1.508 -0.503,2.212 -1.508,2.212 -0.805,0 -1.407,-0.403 -2.212,-1.307 v -5.93 H 0.1 V 0 Z"
             style="fill:#f2f2f2;fill-opacity:1;fill-rule:nonzero;stroke:none"
             id="path130" /></g><g
           id="g132"
           transform="translate(425.5801,178.5146)"
           style="fill:#f2f2f2"><path
             d="M 0,0 C 0,1.608 -0.703,2.513 -2.01,2.513 -3.115,2.513 -4.221,1.608 -4.321,0 Z m -5.729,-0.603 c 0,2.713 1.809,4.322 3.719,4.322 2.111,0 3.317,-1.508 3.317,-3.82 0,-0.301 0,-0.603 -0.1,-0.804 h -5.528 c 0.1,-1.708 1.206,-2.915 2.714,-2.915 0.803,0 1.407,0.302 2.009,0.704 l 0.503,-0.905 c -0.704,-0.502 -1.608,-0.804 -2.714,-0.804 -2.211,-0.1 -3.92,1.508 -3.92,4.222"
             style="fill:#f2f2f2;fill-opacity:1;fill-rule:nonzero;stroke:none"
             id="path134" /></g></g></g><text
       transform="matrix(1,0,0,-1,215.3066,153.27)"
       style="font-variant:normal;font-weight:bold;font-stretch:normal;font-size:15px;font-family:'Libre Franklin';-inkscape-font-specification:LibreFranklin-Bold;writing-mode:lr-tb;fill:#f2f2f2;fill-opacity:1;fill-rule:nonzero;stroke:none"
       id="text138"><tspan
         sodipodi:role="line"
         id="tspan136"
         x="0"
         y="0">MAGIS</tspan></text><text
       transform="scale(1,-1)"
       style="font-variant:normal;font-weight:500;font-stretch:normal;font-size:13px;font-family:'Libre Franklin Medium';-inkscape-font-specification:LibreFranklin-Medium;writing-mode:lr-tb;fill:#f2f2f2;fill-opacity:1;fill-rule:nonzero;stroke:none"
       id="text144"
       x="215.1545"
       y="-136.31766"><tspan
         sodipodi:role="line"
         id="tspan142"
         x="215.1545"
         y="-136.31766">Méthodes et Applications</tspan><tspan
         sodipodi:role="line"
         x="215.1545"
         y="-120.06766"
         id="tspan4645">pour la Géomatique et l'Information Spatiale</tspan></text></g></svg>
